<?xml version="1.0" standalone="no"?>
<!DOCTYPE svg PUBLIC "-//W3C//DTD SVG 20010904//EN"
 "http://www.w3.org/TR/2001/REC-SVG-20010904/DTD/svg10.dtd">
<svg version="1.0" xmlns="http://www.w3.org/2000/svg"
 width="512.000000pt" height="512.000000pt" viewBox="0 0 512.000000 512.000000"
 preserveAspectRatio="xMidYMid meet">
<metadata>
Created by potrace 1.11, written by Peter Selinger 2001-2013
</metadata>
<g transform="translate(0.000000,512.000000) scale(0.100000,-0.100000)"
fill="#000000" stroke="none">
<path d="M0 2560 l0 -2560 2560 0 2560 0 0 2560 0 2560 -2560 0 -2560 0 0
-2560z m4920 0 l0 -2360 -2360 0 -2360 0 0 2360 0 2360 2360 0 2360 0 0 -2360z"/>
<path d="M1471 3581 c-21 -21 -21 -24 -21 -995 0 -873 2 -976 16 -990 14 -14
73 -16 498 -16 450 0 488 1 562 20 123 31 199 73 279 154 137 138 192 332 150
529 -26 123 -123 266 -224 327 -22 14 -40 27 -40 30 0 3 20 18 45 34 49 30
113 105 145 168 35 68 52 165 45 258 -16 243 -150 406 -391 476 -53 15 -121
18 -552 21 -486 4 -492 4 -512 -16z m965 -244 c70 -23 128 -67 161 -124 26
-44 28 -56 28 -153 0 -89 -3 -111 -22 -145 -35 -67 -102 -121 -178 -144 -62
-19 -92 -21 -376 -21 l-309 0 0 306 0 305 323 -3 c267 -4 331 -7 373 -21z m25
-855 c73 -29 137 -86 174 -153 24 -45 30 -69 33 -140 6 -128 -13 -183 -91
-263 -54 -55 -72 -67 -131 -85 -63 -19 -91 -21 -387 -21 l-319 0 0 346 0 345
333 -3 c318 -3 334 -4 388 -26z"/>
<path d="M3395 3575 l-25 -24 0 -963 c0 -856 2 -966 16 -986 14 -21 23 -22
128 -22 97 0 115 3 129 18 16 17 17 100 17 989 l0 970 -23 21 c-21 20 -34 22
-121 22 -90 0 -99 -2 -121 -25z"/>
</g>
</svg>
