<?xml version="1.0" standalone="no"?>
<!DOCTYPE svg PUBLIC "-//W3C//DTD SVG 20010904//EN"
 "http://www.w3.org/TR/2001/REC-SVG-20010904/DTD/svg10.dtd">
<svg version="1.0" xmlns="http://www.w3.org/2000/svg"
 width="512.000000pt" height="512.000000pt" viewBox="0 0 512.000000 512.000000"
 preserveAspectRatio="xMidYMid meet">
<metadata>
Created by potrace 1.11, written by Peter Selinger 2001-2013
</metadata>
<g transform="translate(0.000000,512.000000) scale(0.100000,-0.100000)"
fill="#000000" stroke="none">
<path d="M1470 2490 l0 -1621 468 3 c445 4 471 5 547 26 114 32 181 68 250
137 128 127 206 370 221 690 15 307 -63 595 -202 744 -43 46 -78 72 -146 106
-67 33 -85 46 -71 51 54 18 126 59 167 95 125 111 203 415 177 698 -29 311
-142 519 -335 611 -148 70 -169 73 -648 77 l-428 5 0 -1622z m824 1425 c94
-20 185 -64 236 -115 47 -47 101 -153 127 -250 25 -93 25 -394 0 -501 -40
-169 -123 -282 -243 -330 -57 -23 -69 -24 -391 -27 l-333 -3 0 620 0 621 268
0 c196 0 285 -4 336 -15z m44 -1405 c292 -48 433 -345 402 -844 -24 -381 -112
-534 -345 -604 -38 -11 -125 -16 -377 -19 l-328 -5 0 741 0 741 293 0 c160 0
320 -5 355 -10z"/>
<path d="M3430 2490 l0 -1620 105 0 105 0 0 1620 0 1620 -105 0 -105 0 0
-1620z"/>
</g>
</svg>
