<svg width="86" height="26" viewBox="0 0 86 26" fill="none" xmlns="http://www.w3.org/2000/svg">
    <defs>
        <linearGradient id="MyGradient">
            <stop offset="0" stop-color="#00c6ff" />
            <stop offset="100%" stop-color="#a900ff" />
        </linearGradient>
    </defs>
    <style type="text/css">
        path{fill:url(#MyGradient)}
    </style>
    <path stroke-width="10" d="M84.4 -1.52588e-06C80.2 -1.52588e-06 78.4 6 76.5 12.4C75 17.6 73.2 23.4 70.5 23.4C67.8 23.4 66 17.5 64.5 12.4C62.6 6 60.8 -1.52588e-06 56.6 -1.52588e-06C52.4 -1.52588e-06 50.6 6 48.7 12.4C47.2 17.6 45.4 23.4 42.7 23.4C40 23.4 38.2 17.5 36.7 12.4C34.8 6 33 -1.52588e-06 28.8 -1.52588e-06C24.6 -1.52588e-06 22.8 6 20.9 12.4C19.4 17.6 17.6 23.4 14.9 23.4C12.2 23.4 10.4 17.5 8.9 12.4C7 6 5.2 -1.52588e-06 1 -1.52588e-06C0.4 -1.52588e-06 9.53674e-08 0.399998 9.53674e-08 0.999998C9.53674e-08 1.6 0.4 2 1 2C3.7 2 5.5 7.9 7 13C8.9 19.4 10.7 25.4 14.9 25.4C19.1 25.4 20.9 19.4 22.8 13C24.3 7.8 26.1 2 28.8 2C31.5 2 33.3 7.9 34.8 13C36.7 19.4 38.5 25.4 42.7 25.4C46.9 25.4 48.7 19.4 50.6 13C52.1 7.8 53.9 2 56.6 2C59.3 2 61.1 7.9 62.6 13C64.5 19.4 66.3 25.4 70.5 25.4C74.7 25.4 76.5 19.4 78.4 13C79.9 7.8 81.7 2 84.4 2C85 2 85.4 1.6 85.4 0.999998C85.4 0.399998 85 -1.52588e-06 84.4 -1.52588e-06Z"/>
</svg>